<svg width="22" height="20" viewBox="0 0 22 20" fill="none" xmlns="http://www.w3.org/2000/svg">
<path d="M12.7821 18.9154L20.6258 11.1071C21.2154 10.5196 21.2154 9.47999 20.6258 8.89041L12.7821 1.08208C12.1696 0.473744 11.18 0.475828 10.5717 1.08833C9.96332 1.70083 9.96332 2.68833 10.5758 3.29874L15.7362 8.43833L2.49666 8.43833C1.63207 8.43833 0.934158 9.13833 0.934158 10.0008C0.934158 10.8633 1.63207 11.5633 2.49666 11.5633H15.7362L10.5758 16.7008C10.2696 17.0071 10.1175 17.4071 10.1175 17.8092C10.1175 18.2071 10.2696 18.6071 10.5717 18.9112C11.18 19.5217 12.1696 19.5237 12.7821 18.9154" fill="white"/>
</svg>
