<svg width="50" height="50" viewBox="0 0 50 50" fill="none" xmlns="http://www.w3.org/2000/svg">
<path opacity="0.4" d="M24.5332 45.4947C19.7769 42.5569 15.3554 39.0928 11.3497 35.1658C8.52186 32.362 6.36218 28.9385 5.03573 25.1568C2.66566 17.7817 5.42457 9.35308 13.1273 6.85083C17.1929 5.57402 21.6147 6.35782 25.0147 8.95799C28.4159 6.36073 32.8362 5.57719 36.902 6.85083C44.6047 9.35308 47.3822 17.7817 45.0121 25.1568C43.6964 28.9349 41.5496 32.3581 38.7351 35.1658C34.7258 39.0885 30.3048 42.5522 25.5516 45.4947L25.0332 45.8333L24.5332 45.4947Z" fill="white"/>
<path d="M25.0227 45.8332L24.5333 45.4946C19.7711 42.557 15.3435 39.093 11.3313 35.1657C8.49002 32.3658 6.31749 28.942 4.98027 25.1567C2.62872 17.7816 5.38762 9.35299 13.0903 6.85073C17.156 5.57393 21.636 6.35833 25.0227 8.98027V45.8332Z" fill="white"/>
<path d="M37.9801 20.8317C37.5616 20.8048 37.1719 20.5956 36.9022 20.2533C36.6325 19.9109 36.5066 19.4654 36.554 19.0212C36.5993 17.5579 35.7667 16.2261 34.4827 15.7079C33.6686 15.4856 33.1755 14.6039 33.3792 13.7343C33.5725 12.8788 34.3736 12.3468 35.1788 12.5394C35.2805 12.5562 35.3783 12.5931 35.4674 12.648C38.0418 13.6387 39.7086 16.305 39.5759 19.2203C39.5717 19.6622 39.3995 20.0833 39.0986 20.3871C38.7977 20.6909 38.394 20.8514 37.9801 20.8317Z" fill="white"/>
</svg>
