<svg width="14" height="14" viewBox="0 0 14 14" fill="none" xmlns="http://www.w3.org/2000/svg">
<g clip-path="url(#clip0_6002_4401)">
<path d="M0.0433872 3.3106C0.220264 2.56019 0.917196 2 1.75 2H12.25C13.0828 2 13.7797 2.56019 13.9566 3.3106L7 7.40441L0.0433872 3.3106ZM0 4.27254V10.2579L5.07779 7.26071L0 4.27254ZM5.91623 7.75411L0.167887 11.1471C0.448529 11.717 1.05147 12.1111 1.75 12.1111H12.25C12.9485 12.1111 13.5515 11.717 13.8321 11.1471L8.08377 7.75411L7 8.39188L5.91623 7.75411ZM8.92221 7.26071L14 10.2579V4.27254L8.92221 7.26071Z" fill="#5CDB94"/>
</g>
<defs>
<clipPath id="clip0_6002_4401">
<rect width="14" height="14" fill="white"/>
</clipPath>
</defs>
</svg>
