<svg width="86" height="86" viewBox="0 0 86 86" fill="none" xmlns="http://www.w3.org/2000/svg">
<g clip-path="url(#clip0_6002_4396)">
<path d="M41.2341 19.9498C36.9563 25.8002 33.9356 32.4607 32.3593 39.518C31.693 38.5268 31.1233 38.0455 31.0606 37.5062C30.9422 36.5019 30.9941 35.485 31.2141 34.4976C32.5059 28.8145 34.8691 23.425 38.1792 18.6135C39.2041 17.1249 40.4004 15.7237 42.4964 16.0469C43.3921 16.2038 44.2115 16.6471 44.8297 17.3093C45.4478 17.9715 45.8306 18.8162 45.9199 19.7146C46.8636 24.5342 47.5216 29.4047 47.8903 34.3008C48.2483 40.9808 48.057 47.6899 48.0995 54.3865C48.0244 55.315 48.2473 56.2433 48.7363 57.0384C49.3255 55.9925 49.9014 54.9389 50.5076 53.903C51.0126 52.8855 51.6221 51.9226 52.3266 51.0295C52.5925 50.8006 52.903 50.6285 53.2388 50.5239C53.5747 50.4193 53.9286 50.3844 54.2786 50.4215C54.5874 50.4554 55.0388 51.4254 54.9968 51.937C54.9408 53.0693 54.6893 54.1836 54.2532 55.2314C52.2325 59.5886 50.1701 63.931 47.9427 68.1859C47.6653 68.6489 47.2934 69.0491 46.8509 69.3608C46.4084 69.6725 45.905 69.8889 45.3732 69.996C44.7587 70.0742 43.6043 68.9745 43.3293 68.1839C41.7116 63.5348 40.2705 58.8247 38.8149 54.1214C38.7255 53.8327 39.0211 53.4266 39.1865 52.9274C42.3204 53.6066 42.1216 56.7866 43.7803 58.691C43.9789 58.4541 44.3542 58.2141 44.3488 57.983C44.0909 46.9988 43.8437 36.0139 43.4663 25.0333C43.4086 23.3558 42.7323 21.6993 42.342 20.0331C41.9728 20.0053 41.6035 19.9775 41.2341 19.9498Z" fill="white"/>
</g>
<defs>
<clipPath id="clip0_6002_4396">
<rect width="24" height="54" fill="white" transform="translate(30.9998 16)"/>
</clipPath>
</defs>
</svg>
