<svg width="251" height="43" viewBox="0 0 251 43" fill="none" xmlns="http://www.w3.org/2000/svg">
<path d="M4.99459 30.67C4.66973 30.67 4.38098 30.7332 4.12832 30.8595C3.87565 30.9858 3.67713 31.1618 3.53276 31.3874C3.39289 31.6084 3.32296 31.8701 3.32296 32.1724H0.730915C0.730915 31.6084 0.839199 31.0941 1.05577 30.6294C1.27233 30.1602 1.57463 29.7563 1.96264 29.418C2.35066 29.0751 2.80184 28.8111 3.31619 28.6261C3.83505 28.4412 4.39451 28.3487 4.99459 28.3487C6.04133 28.3487 6.92113 28.5833 7.634 29.0525C8.35138 29.5172 8.8928 30.1466 9.25826 30.9407C9.62823 31.7303 9.81321 32.6168 9.81321 33.6004V33.8508C9.81321 34.8389 9.63048 35.73 9.26502 36.5241C8.89957 37.3182 8.35815 37.9476 7.64077 38.4123C6.9279 38.8725 6.04584 39.1026 4.99459 39.1026C4.15539 39.1026 3.41545 38.9379 2.77477 38.6085C2.13409 38.2747 1.63328 37.8032 1.27233 37.1941C0.911388 36.5805 0.730915 35.8518 0.730915 35.0081H3.32296C3.32296 35.3284 3.39063 35.6217 3.52599 35.8879C3.66134 36.1541 3.85309 36.3662 4.10125 36.5241C4.35391 36.682 4.65169 36.7632 4.99459 36.7677C5.53149 36.7632 5.94884 36.6121 6.24662 36.3143C6.54891 36.0165 6.75871 35.6443 6.87601 35.1976C6.99783 34.7464 7.05874 34.2975 7.05874 33.8508V33.6004C7.05874 33.1086 6.99558 32.6394 6.86925 32.1927C6.74743 31.7461 6.53537 31.3806 6.23308 31.0964C5.9353 30.8121 5.52247 30.67 4.99459 30.67ZM7.89117 32.8627V34.5682H4.2163V32.8627H7.89117ZM11.7031 38.9131V28.5179H14.5862V32.5514H15.3983L18.2272 28.5179H21.6111L17.9362 33.6749L21.6517 38.9131H18.2272L15.6622 35.2247H14.5862V38.9131H11.7031ZM27.1386 39.1161C26.0738 39.1161 25.1579 38.8905 24.3909 38.4393C23.6284 37.9837 23.0419 37.352 22.6313 36.5444C22.2252 35.7368 22.0222 34.8073 22.0222 33.7561C22.0222 32.6913 22.2275 31.7573 22.6381 30.9542C23.0531 30.1466 23.6419 29.5172 24.4044 29.066C25.1669 28.6103 26.0738 28.3825 27.1251 28.3825C28.0319 28.3825 28.826 28.5472 29.5073 28.8765C30.1886 29.2059 30.7278 29.6684 31.1248 30.2639C31.5218 30.8595 31.7407 31.5588 31.7813 32.3619H29.0606C28.9839 31.8431 28.7809 31.4257 28.4515 31.1099C28.1267 30.7896 27.7003 30.6294 27.1724 30.6294C26.7258 30.6294 26.3355 30.7512 26.0016 30.9948C25.6723 31.234 25.4151 31.5836 25.2301 32.0438C25.0451 32.504 24.9526 33.0613 24.9526 33.7155C24.9526 34.3787 25.0429 34.9427 25.2233 35.4074C25.4083 35.8721 25.6677 36.2263 26.0016 36.4699C26.3355 36.7136 26.7258 36.8354 27.1724 36.8354C27.5018 36.8354 27.7973 36.7677 28.059 36.6324C28.3252 36.497 28.544 36.3007 28.7155 36.0436C28.8914 35.7819 29.0065 35.4683 29.0606 35.1029H31.7813C31.7361 35.8969 31.5196 36.5963 31.1316 37.2009C30.7481 37.8009 30.2179 38.2702 29.5411 38.6085C28.8644 38.9469 28.0635 39.1161 27.1386 39.1161ZM33.6272 38.9131V28.5179H36.5102V32.5514H37.3223L40.1513 28.5179H43.5351L39.8602 33.6749L43.5757 38.9131H40.1513L37.5863 35.2247H36.5102V38.9131H33.6272ZM46.7413 42.8113C46.3759 42.8113 46.033 42.782 45.7126 42.7233C45.3968 42.6692 45.1351 42.5992 44.9276 42.5135L45.5773 40.3614C45.9157 40.4652 46.2202 40.5216 46.4909 40.5306C46.7661 40.5396 47.003 40.4764 47.2015 40.3411C47.4046 40.2057 47.5693 39.9756 47.6956 39.6508L47.8648 39.2109L44.1358 28.5179H47.1677L49.3198 36.1519H49.4281L51.6006 28.5179H54.6528L50.6125 40.0365C50.4185 40.596 50.1545 41.0833 49.8207 41.4984C49.4913 41.918 49.0739 42.2406 48.5686 42.4661C48.0633 42.6962 47.4542 42.8113 46.7413 42.8113ZM56.1282 42.8113V28.5179H58.9706V30.2639H59.0992C59.2255 29.9842 59.4083 29.6999 59.6474 29.4112C59.891 29.1179 60.2069 28.8743 60.5949 28.6803C60.9874 28.4818 61.4747 28.3825 62.0567 28.3825C62.8147 28.3825 63.514 28.581 64.1547 28.9781C64.7954 29.3706 65.3075 29.9639 65.691 30.758C66.0745 31.5475 66.2662 32.5379 66.2662 33.729C66.2662 34.8885 66.079 35.8676 65.7045 36.6662C65.3345 37.4603 64.8292 38.0626 64.1885 38.4732C63.5524 38.8792 62.8395 39.0823 62.0499 39.0823C61.4905 39.0823 61.0145 38.9898 60.6219 38.8048C60.2339 38.6198 59.9158 38.3875 59.6677 38.1077C59.4195 37.8235 59.2301 37.537 59.0992 37.2482H59.0112V42.8113H56.1282ZM58.9503 33.7155C58.9503 34.3336 59.036 34.8728 59.2075 35.333C59.3789 35.7932 59.6271 36.1519 59.9519 36.409C60.2768 36.6617 60.6716 36.788 61.1363 36.788C61.6055 36.788 62.0026 36.6594 62.3274 36.4023C62.6523 36.1406 62.8982 35.7796 63.0651 35.3194C63.2365 34.8547 63.3223 34.3201 63.3223 33.7155C63.3223 33.1154 63.2388 32.5875 63.0719 32.1318C62.9049 31.6761 62.659 31.3197 62.3342 31.0625C62.0093 30.8053 61.61 30.6768 61.1363 30.6768C60.6671 30.6768 60.27 30.8008 59.9452 31.049C59.6248 31.2971 59.3789 31.6491 59.2075 32.1047C59.036 32.5604 58.9503 33.0973 58.9503 33.7155ZM72.8851 39.1161C71.8203 39.1161 70.9044 38.8905 70.1374 38.4393C69.3749 37.9837 68.7883 37.352 68.3778 36.5444C67.9717 35.7368 67.7687 34.8073 67.7687 33.7561C67.7687 32.6913 67.974 31.7573 68.3845 30.9542C68.7996 30.1466 69.3884 29.5172 70.1509 29.066C70.9134 28.6103 71.8203 28.3825 72.8715 28.3825C73.7784 28.3825 74.5725 28.5472 75.2538 28.8765C75.9351 29.2059 76.4742 29.6684 76.8713 30.2639C77.2683 30.8595 77.4871 31.5588 77.5277 32.3619H74.8071C74.7304 31.8431 74.5274 31.4257 74.198 31.1099C73.8732 30.7896 73.4468 30.6294 72.9189 30.6294C72.4722 30.6294 72.082 30.7512 71.7481 30.9948C71.4187 31.234 71.1616 31.5836 70.9766 32.0438C70.7916 32.504 70.6991 33.0613 70.6991 33.7155C70.6991 34.3787 70.7893 34.9427 70.9698 35.4074C71.1548 35.8721 71.4142 36.2263 71.7481 36.4699C72.082 36.7136 72.4722 36.8354 72.9189 36.8354C73.2483 36.8354 73.5438 36.7677 73.8055 36.6324C74.0717 36.497 74.2905 36.3007 74.462 36.0436C74.6379 35.7819 74.753 35.4683 74.8071 35.1029H77.5277C77.4826 35.8969 77.2661 36.5963 76.878 37.2009C76.4945 37.8009 75.9644 38.2702 75.2876 38.6085C74.6108 38.9469 73.81 39.1161 72.8851 39.1161ZM82.1281 35.1096L85.8707 28.5179H88.7131V38.9131H85.9654V32.301L82.2364 38.9131H79.3736V28.5179H82.1281V35.1096ZM93.7788 35.1096L97.5213 28.5179H100.364V38.9131H97.6161V32.301L93.887 38.9131H91.0243V28.5179H93.7788V35.1096ZM97.0273 24.8903H99.0373C99.0328 25.7115 98.7282 26.3725 98.1236 26.8733C97.5236 27.3741 96.7114 27.6245 95.6873 27.6245C94.6586 27.6245 93.8442 27.3741 93.2441 26.8733C92.644 26.3725 92.344 25.7115 92.344 24.8903H94.3405C94.336 25.2017 94.4352 25.4814 94.6383 25.7295C94.8458 25.9777 95.1955 26.1018 95.6873 26.1018C96.1655 26.1018 96.5084 25.98 96.716 25.7363C96.9235 25.4927 97.0273 25.2107 97.0273 24.8903ZM109.84 35.1096L113.583 28.5179H116.425V38.9131H113.678V32.301L109.949 38.9131H107.086V28.5179H109.84V35.1096ZM123.147 38.9131V28.5179H132.236V38.9131H129.482V30.785H125.868V38.9131H123.147ZM135.945 42.8113C135.58 42.8113 135.237 42.782 134.916 42.7233C134.601 42.6692 134.339 42.5992 134.131 42.5135L134.781 40.3614C135.119 40.4652 135.424 40.5216 135.695 40.5306C135.97 40.5396 136.207 40.4764 136.405 40.3411C136.608 40.2057 136.773 39.9756 136.899 39.6508L137.069 39.2109L133.34 28.5179H136.371L138.524 36.1519H138.632L140.804 28.5179H143.857L139.816 40.0365C139.622 40.596 139.358 41.0833 139.024 41.4984C138.695 41.918 138.278 42.2406 137.772 42.4661C137.267 42.6962 136.658 42.8113 135.945 42.8113ZM144.791 30.785V28.5179H154.211V30.785H150.861V38.9131H148.113V30.785H144.791ZM160.324 39.1161C159.255 39.1161 158.334 38.8996 157.563 38.4664C156.796 38.0288 156.205 37.4106 155.79 36.6121C155.375 35.809 155.167 34.8592 155.167 33.7628C155.167 32.6935 155.375 31.7551 155.79 30.9475C156.205 30.1399 156.789 29.5105 157.543 29.0593C158.301 28.6081 159.189 28.3825 160.209 28.3825C160.895 28.3825 161.533 28.493 162.124 28.7141C162.72 28.9307 163.239 29.2578 163.681 29.6954C164.128 30.1331 164.475 30.6835 164.723 31.3468C164.971 32.0055 165.095 32.777 165.095 33.6613V34.4532H156.318V32.6665H162.382C162.382 32.2514 162.291 31.8837 162.111 31.5633C161.93 31.243 161.68 30.9926 161.36 30.8121C161.044 30.6271 160.676 30.5346 160.256 30.5346C159.819 30.5346 159.431 30.6362 159.092 30.8392C158.759 31.0377 158.497 31.3062 158.307 31.6445C158.118 31.9784 158.021 32.3506 158.016 32.7612V34.4599C158.016 34.9743 158.111 35.4187 158.301 35.7932C158.495 36.1676 158.768 36.4564 159.12 36.6594C159.471 36.8625 159.889 36.964 160.372 36.964C160.692 36.964 160.985 36.9189 161.251 36.8286C161.518 36.7384 161.745 36.603 161.935 36.4226C162.124 36.2421 162.269 36.021 162.368 35.7593L165.035 35.9353C164.899 36.576 164.622 37.1354 164.202 37.6137C163.787 38.0874 163.25 38.4574 162.591 38.7236C161.937 38.9853 161.181 39.1161 160.324 39.1161ZM166.977 28.5179H169.731V36.6256H172.662V28.5179H175.416V36.6256H178.347V28.5179H181.101V38.9131H166.977V28.5179ZM188.074 39.1161C187.004 39.1161 186.084 38.8996 185.312 38.4664C184.545 38.0288 183.954 37.4106 183.539 36.6121C183.124 35.809 182.917 34.8592 182.917 33.7628C182.917 32.6935 183.124 31.7551 183.539 30.9475C183.954 30.1399 184.539 29.5105 185.292 29.0593C186.05 28.6081 186.939 28.3825 187.958 28.3825C188.644 28.3825 189.283 28.493 189.874 28.7141C190.469 28.9307 190.988 29.2578 191.43 29.6954C191.877 30.1331 192.224 30.6835 192.473 31.3468C192.721 32.0055 192.845 32.777 192.845 33.6613V34.4532H184.067V32.6665H190.131C190.131 32.2514 190.041 31.8837 189.86 31.5633C189.68 31.243 189.429 30.9926 189.109 30.8121C188.793 30.6271 188.425 30.5346 188.006 30.5346C187.568 30.5346 187.18 30.6362 186.842 30.8392C186.508 31.0377 186.246 31.3062 186.057 31.6445C185.867 31.9784 185.77 32.3506 185.766 32.7612V34.4599C185.766 34.9743 185.861 35.4187 186.05 35.7932C186.244 36.1676 186.517 36.4564 186.869 36.6594C187.221 36.8625 187.638 36.964 188.121 36.964C188.441 36.964 188.735 36.9189 189.001 36.8286C189.267 36.7384 189.495 36.603 189.684 36.4226C189.874 36.2421 190.018 36.021 190.117 35.7593L192.784 35.9353C192.649 36.576 192.371 37.1354 191.951 37.6137C191.536 38.0874 190.999 38.4574 190.341 38.7236C189.687 38.9853 188.931 39.1161 188.074 39.1161ZM199.423 39.1161C198.358 39.1161 197.442 38.8905 196.675 38.4393C195.913 37.9837 195.326 37.352 194.916 36.5444C194.51 35.7368 194.307 34.8073 194.307 33.7561C194.307 32.6913 194.512 31.7573 194.922 30.9542C195.338 30.1466 195.926 29.5172 196.689 29.066C197.451 28.6103 198.358 28.3825 199.409 28.3825C200.316 28.3825 201.11 28.5472 201.792 28.8765C202.473 29.2059 203.012 29.6684 203.409 30.2639C203.806 30.8595 204.025 31.5588 204.066 32.3619H201.345C201.268 31.8431 201.065 31.4257 200.736 31.1099C200.411 30.7896 199.985 30.6294 199.457 30.6294C199.01 30.6294 198.62 30.7512 198.286 30.9948C197.957 31.234 197.7 31.5836 197.515 32.0438C197.33 32.504 197.237 33.0613 197.237 33.7155C197.237 34.3787 197.327 34.9427 197.508 35.4074C197.693 35.8721 197.952 36.2263 198.286 36.4699C198.62 36.7136 199.01 36.8354 199.457 36.8354C199.786 36.8354 200.082 36.7677 200.343 36.6324C200.61 36.497 200.828 36.3007 201 36.0436C201.176 35.7819 201.291 35.4683 201.345 35.1029H204.066C204.021 35.8969 203.804 36.5963 203.416 37.2009C203.032 37.8009 202.502 38.2702 201.826 38.6085C201.149 38.9469 200.348 39.1161 199.423 39.1161ZM205.203 30.785V28.5179H214.623V30.785H211.273V38.9131H208.526V30.785H205.203ZM216.371 38.9131V28.5179H220.804C222.085 28.5179 223.098 28.7615 223.843 29.2488C224.587 29.736 224.959 30.4286 224.959 31.3265C224.959 31.8904 224.75 32.3597 224.33 32.7341C223.91 33.1086 223.328 33.3613 222.584 33.4921C223.207 33.5373 223.737 33.6794 224.174 33.9185C224.616 34.1531 224.953 34.4577 225.183 34.8321C225.417 35.2066 225.535 35.6217 225.535 36.0774C225.535 36.6685 225.377 37.176 225.061 37.6001C224.75 38.0243 224.292 38.3491 223.687 38.5747C223.087 38.8003 222.354 38.9131 221.488 38.9131H216.371ZM219.058 36.7542H221.488C221.889 36.7542 222.203 36.6594 222.428 36.4699C222.658 36.2759 222.773 36.012 222.773 35.6781C222.773 35.3081 222.658 35.0171 222.428 34.8051C222.203 34.593 221.889 34.487 221.488 34.487H219.058V36.7542ZM219.058 32.7951H220.865C221.154 32.7951 221.4 32.7545 221.603 32.6732C221.81 32.5875 221.968 32.4657 222.076 32.3078C222.189 32.1499 222.246 31.9626 222.246 31.7461C222.246 31.4257 222.117 31.1753 221.86 30.9948C221.603 30.8144 221.251 30.7241 220.804 30.7241H219.058V32.7951ZM230.106 35.1096L233.849 28.5179H236.691V38.9131H233.944V32.301L230.215 38.9131H227.352V28.5179H230.106V35.1096ZM241.757 35.1096L245.499 28.5179H248.342V38.9131H245.594V32.301L241.865 38.9131H239.002V28.5179H241.757V35.1096ZM245.005 24.8903H247.015C247.011 25.7115 246.706 26.3725 246.102 26.8733C245.502 27.3741 244.69 27.6245 243.665 27.6245C242.637 27.6245 241.822 27.3741 241.222 26.8733C240.622 26.3725 240.322 25.7115 240.322 24.8903H242.319C242.314 25.2017 242.413 25.4814 242.616 25.7295C242.824 25.9777 243.174 26.1018 243.665 26.1018C244.144 26.1018 244.487 25.98 244.694 25.7363C244.902 25.4927 245.005 25.2107 245.005 24.8903Z" fill="white"/>
<path d="M9.87267 18.0869L5.28818 12.0045H4.25702V18.0869H1.24018V3.81787H4.25702V9.51713H4.86318L9.60095 3.81787H13.3563L7.78945 10.4368L13.6141 18.0869H9.87267ZM15.1312 3.81787H18.1411V12.7918H18.2596L24.4256 3.81787H27.0662V18.0869H24.0494V9.10606H23.9449L17.744 18.0869H15.1312V3.81787ZM29.5588 18.0869V3.81787H35.1884C36.2706 3.81787 37.1926 4.02457 37.9544 4.43796C38.7162 4.84671 39.2968 5.41571 39.6962 6.14495C40.1003 6.86955 40.3024 7.70563 40.3024 8.65318C40.3024 9.60074 40.098 10.4368 39.6893 11.1614C39.2805 11.886 38.6883 12.4504 37.9126 12.8545C37.1415 13.2586 36.2079 13.4606 35.1117 13.4606H31.5236V11.043H34.624C35.2046 11.043 35.6831 10.9431 36.0593 10.7434C36.4402 10.539 36.7235 10.258 36.9093 9.90033C37.0997 9.53803 37.195 9.12231 37.195 8.65318C37.195 8.17941 37.0997 7.76601 36.9093 7.413C36.7235 7.05535 36.4402 6.77898 36.0593 6.58389C35.6784 6.38416 35.1953 6.2843 34.6101 6.2843H32.5756V18.0869H29.5588ZM55.3744 10.9524C55.3744 12.5084 55.0794 13.8322 54.4895 14.9238C53.9043 16.0153 53.1054 16.8491 52.0928 17.425C51.0849 17.9963 49.9515 18.282 48.6928 18.282C47.4247 18.282 46.2867 17.994 45.2788 17.4181C44.2708 16.8421 43.4742 16.0083 42.889 14.9168C42.3037 13.8252 42.0111 12.5038 42.0111 10.9524C42.0111 9.39636 42.3037 8.07257 42.889 6.98103C43.4742 5.88949 44.2708 5.05805 45.2788 4.48674C46.2867 3.91077 47.4247 3.62279 48.6928 3.62279C49.9515 3.62279 51.0849 3.91077 52.0928 4.48674C53.1054 5.05805 53.9043 5.88949 54.4895 6.98103C55.0794 8.07257 55.3744 9.39636 55.3744 10.9524ZM52.3157 10.9524C52.3157 9.94446 52.1648 9.09445 51.8629 8.40236C51.5656 7.71027 51.1452 7.1854 50.6018 6.82775C50.0583 6.47009 49.422 6.29127 48.6928 6.29127C47.9635 6.29127 47.3272 6.47009 46.7837 6.82775C46.2403 7.1854 45.8176 7.71027 45.5157 8.40236C45.2184 9.09445 45.0698 9.94446 45.0698 10.9524C45.0698 11.9603 45.2184 12.8103 45.5157 13.5024C45.8176 14.1945 46.2403 14.7194 46.7837 15.077C47.3272 15.4347 47.9635 15.6135 48.6928 15.6135C49.422 15.6135 50.0583 15.4347 50.6018 15.077C51.1452 14.7194 51.5656 14.1945 51.8629 13.5024C52.1648 12.8103 52.3157 11.9603 52.3157 10.9524ZM57.6092 18.0869V3.81787H63.3224C64.3721 3.81787 65.2476 3.97348 65.949 4.28468C66.6504 4.59589 67.1776 5.02786 67.5306 5.5806C67.8836 6.1287 68.0601 6.7604 68.0601 7.47571C68.0601 8.03309 67.9486 8.52313 67.7257 8.94581C67.5027 9.36385 67.1962 9.70757 66.806 9.97697C66.4205 10.2417 65.9792 10.4298 65.4822 10.5413V10.6807C66.0257 10.7039 66.5343 10.8572 67.0081 11.1405C67.4865 11.4238 67.8743 11.821 68.1716 12.3319C68.4689 12.8382 68.6175 13.442 68.6175 14.1434C68.6175 14.9005 68.4294 15.5764 68.0532 16.1709C67.6816 16.7608 67.1311 17.2276 66.4019 17.5713C65.6727 17.9151 64.7739 18.0869 63.7056 18.0869H57.6092ZM60.626 15.6205H63.0855C63.9262 15.6205 64.5393 15.4602 64.9248 15.1397C65.3104 14.8146 65.5031 14.3826 65.5031 13.8438C65.5031 13.449 65.4079 13.1006 65.2175 12.7987C65.027 12.4968 64.7553 12.2599 64.4023 12.0881C64.0539 11.9162 63.6382 11.8303 63.1551 11.8303H60.626V15.6205ZM60.626 9.78885H62.8625C63.2759 9.78885 63.6428 9.71686 63.9633 9.57287C64.2885 9.42423 64.544 9.21521 64.7297 8.94581C64.9202 8.67641 65.0154 8.35359 65.0154 7.97736C65.0154 7.46177 64.8319 7.04606 64.465 6.73021C64.1027 6.41436 63.5871 6.25643 62.9182 6.25643H60.626V9.78885ZM83.1705 8.81343H80.1188C80.063 8.41862 79.9492 8.06793 79.7774 7.76137C79.6055 7.45016 79.3849 7.1854 79.1155 6.9671C78.8461 6.74879 78.5349 6.58157 78.1819 6.46545C77.8335 6.34933 77.455 6.29127 77.0462 6.29127C76.3077 6.29127 75.6644 6.47474 75.1163 6.84168C74.5682 7.20398 74.1432 7.7335 73.8412 8.43023C73.5393 9.12231 73.3884 9.96304 73.3884 10.9524C73.3884 11.9696 73.5393 12.8243 73.8412 13.5164C74.1478 14.2084 74.5751 14.731 75.1232 15.084C75.6713 15.437 76.3053 15.6135 77.0253 15.6135C77.4294 15.6135 77.8033 15.5601 78.147 15.4533C78.4954 15.3464 78.8043 15.1908 79.0737 14.9865C79.3431 14.7774 79.566 14.5243 79.7425 14.227C79.9237 13.9298 80.0491 13.5907 80.1188 13.2098L83.1705 13.2237C83.0915 13.8787 82.8941 14.5104 82.5782 15.1188C82.267 15.7227 81.8467 16.2638 81.3172 16.7422C80.7923 17.216 80.1652 17.5922 79.436 17.8709C78.7114 18.145 77.8916 18.282 76.9765 18.282C75.7038 18.282 74.5658 17.994 73.5625 17.4181C72.5639 16.8421 71.7743 16.0083 71.1937 14.9168C70.6177 13.8252 70.3297 12.5038 70.3297 10.9524C70.3297 9.39636 70.6223 8.07257 71.2076 6.98103C71.7929 5.88949 72.5871 5.05805 73.5904 4.48674C74.5937 3.91077 75.7224 3.62279 76.9765 3.62279C77.8033 3.62279 78.5697 3.73891 79.2757 3.97115C79.9864 4.2034 80.6158 4.54247 81.1639 4.98838C81.712 5.42964 82.1579 5.97077 82.5016 6.61176C82.85 7.25275 83.0729 7.98664 83.1705 8.81343ZM93.9663 18.0869L89.3818 12.0045H88.3507V18.0869H85.3338V3.81787H88.3507V9.51713H88.9568L93.6946 3.81787H97.45L91.8831 10.4368L97.7077 18.0869H93.9663ZM111.533 10.9524C111.533 12.5084 111.238 13.8322 110.648 14.9238C110.063 16.0153 109.264 16.8491 108.251 17.425C107.243 17.9963 106.11 18.282 104.851 18.282C103.583 18.282 102.445 17.994 101.437 17.4181C100.429 16.8421 99.6325 16.0083 99.0472 14.9168C98.462 13.8252 98.1693 12.5038 98.1693 10.9524C98.1693 9.39636 98.462 8.07257 99.0472 6.98103C99.6325 5.88949 100.429 5.05805 101.437 4.48674C102.445 3.91077 103.583 3.62279 104.851 3.62279C106.11 3.62279 107.243 3.91077 108.251 4.48674C109.264 5.05805 110.063 5.88949 110.648 6.98103C111.238 8.07257 111.533 9.39636 111.533 10.9524ZM108.474 10.9524C108.474 9.94446 108.323 9.09445 108.021 8.40236C107.724 7.71027 107.303 7.1854 106.76 6.82775C106.217 6.47009 105.58 6.29127 104.851 6.29127C104.122 6.29127 103.485 6.47009 102.942 6.82775C102.398 7.1854 101.976 7.71027 101.674 8.40236C101.377 9.09445 101.228 9.94446 101.228 10.9524C101.228 11.9603 101.377 12.8103 101.674 13.5024C101.976 14.1945 102.398 14.7194 102.942 15.077C103.485 15.4347 104.122 15.6135 104.851 15.6135C105.58 15.6135 106.217 15.4347 106.76 15.077C107.303 14.7194 107.724 14.1945 108.021 13.5024C108.323 12.8103 108.474 11.9603 108.474 10.9524ZM113.767 18.0869V3.81787H123.382V6.3052H116.784V9.70525H122.888V12.1926H116.784V15.5996H123.41V18.0869H113.767ZM132.781 18.0869H129.548L134.474 3.81787H138.362L143.281 18.0869H140.048L136.474 7.07857H136.362L132.781 18.0869ZM132.579 12.4782H140.215V14.8332H132.579V12.4782ZM154.467 3.81787V6.3052H148.015V18.0869H144.998V3.81787H154.467ZM156.399 18.0869V3.81787H166.013V6.3052H159.415V9.70525H165.519V12.1926H159.415V15.5996H166.041V18.0869H156.399ZM168.412 18.0869V3.81787H171.429V9.70525H177.553V3.81787H180.563V18.0869H177.553V12.1926H171.429V18.0869H168.412ZM182.507 6.3052V3.81787H194.226V6.3052H189.857V18.0869H186.875V6.3052H182.507ZM208.094 8.81343H205.043C204.987 8.41862 204.873 8.06793 204.701 7.76137C204.529 7.45016 204.309 7.1854 204.039 6.9671C203.77 6.74879 203.459 6.58157 203.106 6.46545C202.757 6.34933 202.379 6.29127 201.97 6.29127C201.231 6.29127 200.588 6.47474 200.04 6.84168C199.492 7.20398 199.067 7.7335 198.765 8.43023C198.463 9.12231 198.312 9.96304 198.312 10.9524C198.312 11.9696 198.463 12.8243 198.765 13.5164C199.072 14.2084 199.499 14.731 200.047 15.084C200.595 15.437 201.229 15.6135 201.949 15.6135C202.353 15.6135 202.727 15.5601 203.071 15.4533C203.419 15.3464 203.728 15.1908 203.997 14.9865C204.267 14.7774 204.49 14.5243 204.666 14.227C204.847 13.9298 204.973 13.5907 205.043 13.2098L208.094 13.2237C208.015 13.8787 207.818 14.5104 207.502 15.1188C207.191 15.7227 206.77 16.2638 206.241 16.7422C205.716 17.216 205.089 17.5922 204.36 17.8709C203.635 18.145 202.815 18.282 201.9 18.282C200.628 18.282 199.49 17.994 198.486 17.4181C197.488 16.8421 196.698 16.0083 196.117 14.9168C195.541 13.8252 195.253 12.5038 195.253 10.9524C195.253 9.39636 195.546 8.07257 196.131 6.98103C196.717 5.88949 197.511 5.05805 198.514 4.48674C199.517 3.91077 200.646 3.62279 201.9 3.62279C202.727 3.62279 203.493 3.73891 204.2 3.97115C204.91 4.2034 205.54 4.54247 206.088 4.98838C206.636 5.42964 207.082 5.97077 207.425 6.61176C207.774 7.25275 207.997 7.98664 208.094 8.81343ZM209.714 6.3052V3.81787H221.433V6.3052H217.065V18.0869H214.083V6.3052H209.714ZM223.363 18.0869V3.81787H229.076C230.126 3.81787 231.002 3.97348 231.703 4.28468C232.404 4.59589 232.932 5.02786 233.285 5.5806C233.638 6.1287 233.814 6.7604 233.814 7.47571C233.814 8.03309 233.703 8.52313 233.48 8.94581C233.257 9.36385 232.95 9.70757 232.56 9.97697C232.174 10.2417 231.733 10.4298 231.236 10.5413V10.6807C231.78 10.7039 232.288 10.8572 232.762 11.1405C233.24 11.4238 233.628 11.821 233.926 12.3319C234.223 12.8382 234.371 13.442 234.371 14.1434C234.371 14.9005 234.183 15.5764 233.807 16.1709C233.435 16.7608 232.885 17.2276 232.156 17.5713C231.427 17.9151 230.528 18.0869 229.459 18.0869H223.363ZM226.38 15.6205H228.839C229.68 15.6205 230.293 15.4602 230.679 15.1397C231.064 14.8146 231.257 14.3826 231.257 13.8438C231.257 13.449 231.162 13.1006 230.971 12.7987C230.781 12.4968 230.509 12.2599 230.156 12.0881C229.808 11.9162 229.392 11.8303 228.909 11.8303H226.38V15.6205ZM226.38 9.78885H228.616C229.03 9.78885 229.397 9.71686 229.717 9.57287C230.042 9.42423 230.298 9.21521 230.484 8.94581C230.674 8.67641 230.769 8.35359 230.769 7.97736C230.769 7.46177 230.586 7.04606 230.219 6.73021C229.857 6.41436 229.341 6.25643 228.672 6.25643H226.38V9.78885ZM249.447 10.9524C249.447 12.5084 249.152 13.8322 248.562 14.9238C247.977 16.0153 247.178 16.8491 246.165 17.425C245.157 17.9963 244.024 18.282 242.765 18.282C241.497 18.282 240.359 17.994 239.351 17.4181C238.343 16.8421 237.547 16.0083 236.962 14.9168C236.376 13.8252 236.084 12.5038 236.084 10.9524C236.084 9.39636 236.376 8.07257 236.962 6.98103C237.547 5.88949 238.343 5.05805 239.351 4.48674C240.359 3.91077 241.497 3.62279 242.765 3.62279C244.024 3.62279 245.157 3.91077 246.165 4.48674C247.178 5.05805 247.977 5.88949 248.562 6.98103C249.152 8.07257 249.447 9.39636 249.447 10.9524ZM246.388 10.9524C246.388 9.94446 246.237 9.09445 245.935 8.40236C245.638 7.71027 245.218 7.1854 244.674 6.82775C244.131 6.47009 243.495 6.29127 242.765 6.29127C242.036 6.29127 241.4 6.47009 240.856 6.82775C240.313 7.1854 239.89 7.71027 239.588 8.40236C239.291 9.09445 239.142 9.94446 239.142 10.9524C239.142 11.9603 239.291 12.8103 239.588 13.5024C239.89 14.1945 240.313 14.7194 240.856 15.077C241.4 15.4347 242.036 15.6135 242.765 15.6135C243.495 15.6135 244.131 15.4347 244.674 15.077C245.218 14.7194 245.638 14.1945 245.935 13.5024C246.237 12.8103 246.388 11.9603 246.388 10.9524Z" fill="white"/>
</svg>
